<svg xmlns="http://www.w3.org/2000/svg" viewBox="0 0 425.61 310.44"><defs><style>.cls-1{fill:#e0e0e0;}.cls-2{fill:#27debf;}.cls-14,.cls-3{opacity:0.1;}.cls-16,.cls-17,.cls-4{fill:#fff;}.cls-5{fill:#263238;}.cls-6{fill:#37474f;}.cls-7{fill:#455a64;}.cls-8{opacity:0.2;}.cls-9{fill:#e6e6e6;}.cls-10,.cls-12{fill:#fafafa;}.cls-11{fill:#f5f5f5;}.cls-12{stroke:#ebebeb;stroke-miterlimit:10;}.cls-13{fill:#ebebeb;}.cls-15{opacity:0.15;}.cls-16{opacity:0.4;}.cls-17{opacity:0.7;}</style></defs><g id="Layer_2" data-name="Layer 2"><g id="Shadow"><polygon id="Shadow-2" data-name="Shadow" class="cls-1" points="130.5 309.14 59.34 267.76 179.72 198.19 130.5 309.14"/><path id="Shadow-3" data-name="Shadow" class="cls-1" d="M27.77,265.25l29,16.73a4.3,4.3,0,0,0,3.89,0l40-23.34a1.19,1.19,0,0,0,0-2.25l-29-16.72a4.3,4.3,0,0,0-3.89,0L27.77,263A1.18,1.18,0,0,0,27.77,265.25Z"/></g><g id="Plants"><g id="Plants-2" data-name="Plants"><path class="cls-2" d="M30.91,262.63c-2-3.23-8.17-6.76-16.27-8.51S-1.59,250.19.27,245.49c2-5.07,9.54-5.32,16.9-2.3,8,3.3,14,11.47,14.12,16.6Z"/><g class="cls-3"><path d="M30.91,262.63c-2-3.23-8.17-6.76-16.27-8.51S-1.59,250.19.27,245.49c2-5.07,9.54-5.32,16.9-2.3,8,3.3,14,11.47,14.12,16.6Z"/></g><path class="cls-4" d="M31.55,261.16a.62.62,0,0,1-.55-.34c-6.43-13.31-21.34-15.45-26-14.73a.61.61,0,1,1-.18-1.2c4.93-.76,20.58,1.48,27.31,15.4a.61.61,0,0,1-.28.81A.65.65,0,0,1,31.55,261.16Z"/><path class="cls-2" d="M30.91,262.63S27,247.29,17.24,239.05c-2.92-2.45-6-5.51-8.19-7.63-4.66-4.54-2.72-9.48,3.74-9.39,9.59.13,16.61,8.21,19.65,18.78S30.91,262.63,30.91,262.63Z"/><path class="cls-4" d="M32.44,256.68a.61.61,0,0,1-.6-.55c-1.81-19.5-16.68-29.31-20.73-30.34a.61.61,0,0,1-.44-.74.6.6,0,0,1,.74-.43C16.32,225.87,31.19,236.05,33,256a.6.6,0,0,1-.54.66Z"/></g></g><g id="Cabinet"><g id="Cabinet-2" data-name="Cabinet"><polygon class="cls-5" points="57.76 279.49 30.43 263.71 30.43 205.1 57.76 220.88 57.76 279.49"/><polygon class="cls-6" points="57.76 220.88 96.8 198.34 96.8 256.94 57.76 279.49 57.76 220.88"/><polygon class="cls-7" points="96.8 198.34 57.76 220.88 30.43 205.1 69.47 182.56 96.8 198.34"/><path class="cls-5" d="M74.62,220.16l5.31-3.07c.69-.4,1.25-.21,1.25.41a2.51,2.51,0,0,1-1.25,1.85l-5.31,3.06c-.69.4-1.25.22-1.25-.4A2.49,2.49,0,0,1,74.62,220.16Z"/><polygon class="cls-5" points="60.94 250.6 92.18 232.57 92.89 232.98 92.17 254.28 92.89 254.69 61.66 272.72 60.94 272.31 60.94 250.6"/><polygon class="cls-7" points="61.66 251.02 92.89 232.98 92.89 254.69 61.66 272.72 61.66 251.02"/><path class="cls-5" d="M73.9,247.63l5.32-3.07c.68-.4,1.24-.22,1.24.41a2.49,2.49,0,0,1-1.24,1.84l-5.32,3.07c-.69.4-1.25.22-1.24-.41A2.46,2.46,0,0,1,73.9,247.63Z"/><polygon class="cls-5" points="60.94 223.6 92.18 205.57 92.89 205.98 92.17 227.28 92.89 227.69 61.66 245.72 60.94 245.31 60.94 223.6"/><polygon class="cls-7" points="61.66 224.02 92.89 205.98 92.89 227.69 61.66 245.72 61.66 224.02"/><path class="cls-5" d="M73.9,220.63l5.32-3.07c.68-.4,1.24-.22,1.24.41a2.49,2.49,0,0,1-1.24,1.84l-5.32,3.07c-.69.4-1.25.22-1.24-.41A2.46,2.46,0,0,1,73.9,220.63Z"/></g><g id="Cabinet-3" data-name="Cabinet"><polygon class="cls-5" points="57.76 218.39 30.43 202.61 30.43 144 57.76 159.78 57.76 218.39"/><polygon class="cls-6" points="57.76 159.78 96.8 137.24 96.8 195.85 57.76 218.39 57.76 159.78"/><polygon class="cls-7" points="96.8 137.24 57.76 159.78 30.43 144 69.47 121.46 96.8 137.24"/><polygon class="cls-5" points="61.66 162.04 92.89 144 93.61 144.42 93.61 166.13 62.38 184.16 61.66 183.74 61.66 162.04"/><path class="cls-5" d="M74.62,159.06,79.93,156c.69-.4,1.25-.22,1.25.4a2.51,2.51,0,0,1-1.25,1.85l-5.31,3.07c-.69.39-1.25.21-1.25-.41A2.51,2.51,0,0,1,74.62,159.06Z"/><polygon class="cls-5" points="60.94 189.5 92.18 171.47 92.17 193.18 92.89 193.59 61.66 211.63 60.94 211.21 60.94 189.5"/><polygon class="cls-7" points="61.66 189.92 92.89 171.89 92.89 193.59 61.66 211.63 61.66 189.92"/><path class="cls-5" d="M73.9,186.53l5.32-3.07c.68-.4,1.24-.21,1.24.41a2.52,2.52,0,0,1-1.24,1.85l-5.32,3.06c-.69.4-1.25.22-1.24-.4A2.5,2.5,0,0,1,73.9,186.53Z"/><polygon class="cls-5" points="61.66 162.04 92.89 144 92.89 165.71 61.66 183.74 61.66 162.04"/><polygon class="cls-5" points="108.51 154.73 91.42 144.86 91.41 163.98 108.51 173.85 108.51 154.73"/><polygon class="cls-2" points="73.37 186.83 73.37 159.78 80.08 155.9 81.18 157.53 100.7 146.26 100.7 171.05 73.37 186.83"/><g class="cls-8"><polygon points="73.37 186.83 73.37 159.78 80.08 155.9 81.18 157.53 100.7 146.26 100.7 171.05 73.37 186.83"/></g><polygon class="cls-2" points="73.37 186.83 75.33 163.16 102.66 147.38 100.7 171.05 73.37 186.83"/><polygon class="cls-6" points="77.28 172.76 62.38 164.16 62.38 183.28 77.28 191.88 77.28 172.76"/><polygon class="cls-7" points="77.28 171.05 108.51 153.02 108.51 174.73 77.28 192.76 77.28 171.05"/><path class="cls-5" d="M89.52,167.66l5.31-3.06c.69-.4,1.25-.22,1.25.4a2.51,2.51,0,0,1-1.25,1.85l-5.31,3.07c-.69.39-1.25.21-1.25-.41A2.51,2.51,0,0,1,89.52,167.66Z"/><polygon class="cls-5" points="77.28 171.05 76.24 170.45 76.24 192.16 77.28 192.76 77.28 171.05"/><polygon class="cls-6" points="76.24 170.45 107.47 152.42 108.51 153.02 77.28 171.05 76.24 170.45"/></g></g><g id="Window"><g id="Window-2" data-name="Window"><path class="cls-9" d="M338.13,14.52l-4.06-2.36L126.91,131.77V305a3,3,0,0,0,1.26,2.8h0l4.06,2.36h0a3,3,0,0,0,3.06-.3l198.51-114.6a9.59,9.59,0,0,0,4.33-7.5Z"/><path class="cls-10" d="M133.37,309.94c-1.19,0-1.9-1-1.9-2.59V134.42l206.16-119V187.75a9,9,0,0,1-4.08,7.06L135.05,309.42a3.49,3.49,0,0,1-1.68.52Z"/><path class="cls-1" d="M337.13,16.26V187.75a8.63,8.63,0,0,1-3.83,6.63L134.8,309a3,3,0,0,1-1.43.45c-1.26,0-1.4-1.46-1.4-2.09V134.71L337.13,16.26m1-1.74L131,134.13V307.35c0,2,1,3.09,2.4,3.09a3.92,3.92,0,0,0,1.93-.59l198.51-114.6a9.59,9.59,0,0,0,4.33-7.5V14.52Z"/><polygon class="cls-2" points="130.97 134.13 130.97 152.88 338.13 33.27 338.13 14.52 130.97 134.13"/><path class="cls-10" d="M261,66.43v4c0,.83.58,1.16,1.3.75L326,34.45v-7L262.26,64.18A2.89,2.89,0,0,0,261,66.43Z"/><path class="cls-7" d="M332.77,23.47c.72-.41,1.3-.08,1.3.75v4a2.87,2.87,0,0,1-1.3,2.25L326,34.45v-7Z"/><path class="cls-10" d="M332.27,29l-.76-.23a4.17,4.17,0,0,0,.12-1,1.81,1.81,0,0,0-.69-1.63,1.08,1.08,0,0,0-1.11.05,3.89,3.89,0,0,0-1.52,3.17A1.81,1.81,0,0,0,329,31a1,1,0,0,0,.48.13,1.28,1.28,0,0,0,.63-.19,3.24,3.24,0,0,0,1.23-1.64l.76.23.09,0a.29.29,0,0,0,.27-.2A.3.3,0,0,0,332.27,29Zm-2.44,1.46a.54.54,0,0,1-.55.06,1.34,1.34,0,0,1-.41-1.14,3.41,3.41,0,0,1,1.24-2.68.69.69,0,0,1,.34-.1.35.35,0,0,1,.2,0,1.31,1.31,0,0,1,.42,1.14A3.38,3.38,0,0,1,329.83,30.46Z"/><path class="cls-5" d="M332.85.32a3,3,0,0,0-3.11.27L131.24,115.2a9.58,9.58,0,0,0-4.33,7.5v9.07l4.06,2.36L338.13,14.52V5.45a3,3,0,0,0-1.25-2.79C336.15,2.23,333.55.75,332.85.32Z"/><path class="cls-6" d="M131,125.06a9.58,9.58,0,0,1,4.33-7.5L333.8,3c2.4-1.38,4.33-.26,4.33,2.5v9.07L131,134.13Z"/><path class="cls-7" d="M336.92,2.69A3,3,0,0,0,333.8,3L135.3,117.56a8.83,8.83,0,0,0-3.06,3.23l-4.07-2.35a8.89,8.89,0,0,1,3.07-3.24L329.74.59a3,3,0,0,1,3.1-.27c.71.43,3.31,1.92,4,2.34Z"/><path class="cls-2" d="M313.76,19.2a4.49,4.49,0,0,0-2,3.52c0,1.3.91,1.82,2,1.17a4.48,4.48,0,0,0,2-3.52C315.79,19.08,314.88,18.55,313.76,19.2Z"/><path class="cls-2" d="M320.87,15.11a4.49,4.49,0,0,0-2,3.52c0,1.29.91,1.82,2,1.17a4.49,4.49,0,0,0,2-3.52C322.9,15,322,14.46,320.87,15.11Z"/><path class="cls-2" d="M328,11a4.51,4.51,0,0,0-2,3.52c0,1.3.91,1.82,2,1.18a4.51,4.51,0,0,0,2-3.52C330,10.89,329.1,10.37,328,11Z"/><path class="cls-11" d="M133.37,309.94c-1.19,0-1.9-1-1.9-2.59V153.17l39.62-22.88V288.61l-36,20.81a3.49,3.49,0,0,1-1.68.52Z"/><path class="cls-1" d="M170.59,131.16V288.32L134.8,309a3,3,0,0,1-1.43.45c-1.26,0-1.4-1.46-1.4-2.09V153.46l38.62-22.3m1-1.73L131,152.88V307.35c0,2,1,3.09,2.4,3.09a3.92,3.92,0,0,0,1.93-.59l36.29-21V129.43Z"/><path class="cls-1" d="M144.46,154.47l19.43-11.23c.72-.41,1.3-.08,1.3.75v1.69a2.86,2.86,0,0,1-1.3,2.25l-19.43,11.24c-.72.41-1.3.07-1.3-.75v-1.69A2.89,2.89,0,0,1,144.46,154.47Z"/><path class="cls-2" d="M139.1,159.07v1.69a2.88,2.88,0,0,1-1.3,2.25l-1.47.85c-.71.41-1.3.07-1.3-.75v-1.69a2.88,2.88,0,0,1,1.3-2.25l1.47-.85C138.51,157.91,139.1,158.24,139.1,159.07Z"/><path class="cls-1" d="M144.46,163.82l19.43-11.23c.72-.42,1.3-.08,1.3.75V155a2.87,2.87,0,0,1-1.3,2.25l-19.43,11.23c-.72.42-1.3.08-1.3-.75v-1.69A2.87,2.87,0,0,1,144.46,163.82Z"/><path class="cls-2" d="M139.1,168.42v1.69a2.9,2.9,0,0,1-1.3,2.25l-1.47.84c-.71.42-1.3.08-1.3-.75v-1.69a2.9,2.9,0,0,1,1.3-2.25l1.47-.84C138.51,167.25,139.1,167.59,139.1,168.42Z"/><path class="cls-1" d="M144.46,173.17l19.43-11.24c.72-.41,1.3-.07,1.3.75v1.69a2.86,2.86,0,0,1-1.3,2.25l-19.43,11.24c-.72.41-1.3.08-1.3-.75v-1.69A2.86,2.86,0,0,1,144.46,173.17Z"/><path class="cls-2" d="M139.1,177.76v1.69a2.88,2.88,0,0,1-1.3,2.25l-1.47.85c-.71.41-1.3.08-1.3-.75v-1.69a2.88,2.88,0,0,1,1.3-2.25l1.47-.85C138.51,176.6,139.1,176.93,139.1,177.76Z"/><path class="cls-1" d="M144.46,204.16l19.43-11.23c.72-.42,1.3-.08,1.3.75v1.69a2.89,2.89,0,0,1-1.3,2.25l-19.43,11.23c-.72.41-1.3.08-1.3-.75v-1.69A2.86,2.86,0,0,1,144.46,204.16Z"/><path class="cls-2" d="M139.1,208.75v1.7a2.91,2.91,0,0,1-1.3,2.25l-1.47.84c-.71.41-1.3.08-1.3-.75V211.1a2.88,2.88,0,0,1,1.3-2.25l1.47-.85C138.51,207.59,139.1,207.93,139.1,208.75Z"/><path class="cls-1" d="M144.46,212.44l19.43-11.24c.72-.41,1.3-.08,1.3.75v1.69a2.86,2.86,0,0,1-1.3,2.25l-19.43,11.24c-.72.41-1.3.08-1.3-.75v-1.69A2.86,2.86,0,0,1,144.46,212.44Z"/><path class="cls-2" d="M139.1,217v1.69a2.88,2.88,0,0,1-1.3,2.25l-1.47.85c-.71.41-1.3.08-1.3-.75v-1.69a2.88,2.88,0,0,1,1.3-2.25l1.47-.85C138.51,215.87,139.1,216.2,139.1,217Z"/><path class="cls-1" d="M144.46,220.71l19.43-11.23c.72-.41,1.3-.08,1.3.75v1.69a2.86,2.86,0,0,1-1.3,2.25L144.46,225.4c-.72.42-1.3.08-1.3-.74V223A2.89,2.89,0,0,1,144.46,220.71Z"/><path class="cls-2" d="M139.1,225.31V227a2.88,2.88,0,0,1-1.3,2.25l-1.47.85c-.71.41-1.3.07-1.3-.75v-1.7a2.88,2.88,0,0,1,1.3-2.24l1.47-.85C138.51,224.15,139.1,224.48,139.1,225.31Z"/><polygon class="cls-2" points="143.16 183.37 143.16 186.28 145.68 183.37 143.16 183.37"/><path class="cls-1" d="M147.22,182.77c0,.54.39.75.87.48l16.23-9.35a1.91,1.91,0,0,0,.87-1.49c0-.55-.39-.77-.87-.5l-16.23,9.38A1.89,1.89,0,0,0,147.22,182.77Z"/><polygon class="cls-2" points="143.16 188.06 143.16 190.97 145.68 188.06 143.16 188.06"/><path class="cls-1" d="M147.22,187.46c0,.54.39.75.87.48l16.23-9.35a1.92,1.92,0,0,0,.87-1.49c0-.55-.39-.77-.87-.5L148.09,186A1.87,1.87,0,0,0,147.22,187.46Z"/><polygon class="cls-2" points="143.16 192.75 143.16 195.66 145.68 192.75 143.16 192.75"/><path class="cls-1" d="M147.22,192.15c0,.54.39.75.87.48l16.23-9.35a1.92,1.92,0,0,0,.87-1.5c0-.54-.39-.76-.87-.49l-16.23,9.38A1.87,1.87,0,0,0,147.22,192.15Z"/><polygon class="cls-2" points="143.16 197.44 143.16 200.35 145.68 197.44 143.16 197.44"/><path class="cls-1" d="M147.22,196.83c0,.55.39.76.87.48L164.32,188a1.92,1.92,0,0,0,.87-1.5c0-.54-.39-.77-.87-.49l-16.23,9.37A1.9,1.9,0,0,0,147.22,196.83Z"/><path class="cls-2" d="M183.78,135v24.44c0,1,.72,1.44,1.6.93l26.88-15.52a3.54,3.54,0,0,0,1.6-2.77V122c0-1-.72-1.44-1.6-.93l-15.6,9c-.88.51-1.6.09-1.6-.93v-.64c0-1-.72-1.44-1.6-.92l-8.08,4.66A3.54,3.54,0,0,0,183.78,135Z"/><path class="cls-1" d="M189.06,164.06v1.57c0,.77.54,1.08,1.2.69l20.16-11.63a2.66,2.66,0,0,0,1.2-2.09V151c0-.77-.53-1.08-1.2-.7L190.26,162A2.68,2.68,0,0,0,189.06,164.06Z"/><path class="cls-2" d="M221.14,113.56V138c0,1,.72,1.44,1.61.92l26.87-15.51a3.56,3.56,0,0,0,1.6-2.78v-20.1c0-1-.72-1.43-1.6-.92l-15.6,9c-.88.51-1.6.1-1.6-.92v-.64c0-1-.72-1.44-1.6-.93l-8.07,4.66A3.55,3.55,0,0,0,221.14,113.56Z"/><path class="cls-1" d="M226.42,142.61v1.56c0,.77.54,1.08,1.21.7l20.15-11.64a2.65,2.65,0,0,0,1.21-2.08v-1.57c0-.76-.54-1.07-1.21-.69l-20.15,11.64A2.64,2.64,0,0,0,226.42,142.61Z"/><path class="cls-2" d="M183.78,184.11v24.44c0,1,.72,1.44,1.6.93L212.26,194a3.55,3.55,0,0,0,1.6-2.78V171.09c0-1-.72-1.44-1.6-.93l-15.6,9c-.88.52-1.6.1-1.6-.92v-.64c0-1-.72-1.44-1.6-.93l-8.08,4.67A3.54,3.54,0,0,0,183.78,184.11Z"/><path class="cls-1" d="M189.06,213.16v1.57c0,.77.54,1.08,1.2.69l20.16-11.64a2.62,2.62,0,0,0,1.2-2.08v-1.56c0-.77-.53-1.08-1.2-.7l-20.16,11.64A2.67,2.67,0,0,0,189.06,213.16Z"/><path class="cls-2" d="M221.14,162.66V187.1c0,1,.72,1.43,1.61.92l26.87-15.51a3.56,3.56,0,0,0,1.6-2.78v-20.1c0-1-.72-1.44-1.6-.92l-15.6,9c-.88.51-1.6.1-1.6-.93v-.64c0-1-.72-1.43-1.6-.92l-8.07,4.66A3.55,3.55,0,0,0,221.14,162.66Z"/><path class="cls-1" d="M226.42,191.71v1.56c0,.77.54,1.08,1.21.7l20.15-11.64a2.65,2.65,0,0,0,1.21-2.08v-1.57c0-.77-.54-1.08-1.21-.69l-20.15,11.64A2.64,2.64,0,0,0,226.42,191.71Z"/><path class="cls-2" d="M258.94,90.93v24.44c0,1,.72,1.43,1.61.92l26.87-15.52A3.54,3.54,0,0,0,289,98V77.9c0-1-.72-1.44-1.6-.93l-15.6,9c-.88.51-1.6.09-1.6-.93v-.64c0-1-.72-1.43-1.6-.92l-8.07,4.66A3.53,3.53,0,0,0,258.94,90.93Z"/><path class="cls-1" d="M263.79,121.15v1.57c0,.77.54,1.08,1.2.69l20.16-11.63a2.68,2.68,0,0,0,1.2-2.09v-1.56c0-.77-.54-1.08-1.2-.7L265,119.07A2.68,2.68,0,0,0,263.79,121.15Z"/><path class="cls-2" d="M295.87,70.65V95.09c0,1,.72,1.44,1.6.93L324.34,80.5A3.55,3.55,0,0,0,326,77.72V57.62c0-1-.72-1.43-1.61-.92l-15.59,9c-.89.51-1.6.1-1.6-.92v-.64c0-1-.72-1.44-1.61-.93l-8.07,4.66A3.56,3.56,0,0,0,295.87,70.65Z"/><path class="cls-1" d="M301.15,99.7v1.57c0,.76.54,1.07,1.2.69l20.16-11.64a2.65,2.65,0,0,0,1.2-2.08V86.67c0-.76-.54-1.07-1.2-.69L302.35,97.62A2.65,2.65,0,0,0,301.15,99.7Z"/><path class="cls-1" d="M263.79,170.23v1.57c0,.77.54,1.08,1.2.69l20.16-11.63a2.68,2.68,0,0,0,1.2-2.09v-1.56c0-.77-.54-1.08-1.2-.7L265,168.15A2.68,2.68,0,0,0,263.79,170.23Z"/><path class="cls-12" d="M264.29,135.89l20.91-12.07c1-.56,1.73-.11,1.73,1V149a3.81,3.81,0,0,1-1.73,3L264.29,164c-1,.55-1.73.1-1.73-1V138.89A3.83,3.83,0,0,1,264.29,135.89Z"/><path class="cls-2" d="M287.66,127.07l-4.66,2.7a3.81,3.81,0,0,0-1.73,3v5.38c0,1.1.77,1.55,1.73,1l4.66-2.69a3.84,3.84,0,0,0,1.73-3v-5.39C289.39,127,288.62,126.52,287.66,127.07Z"/><path class="cls-13" d="M265.89,138.49l10.47-6c.48-.28.87-.05.87.5v.33a1.91,1.91,0,0,1-.87,1.5l-10.47,6c-.48.27-.87,0-.87-.5V140A1.92,1.92,0,0,1,265.89,138.49Z"/><path class="cls-13" d="M265.89,143.18l10.47-6c.48-.27.87-.05.87.5V138a1.92,1.92,0,0,1-.87,1.5l-10.47,6c-.48.28-.87,0-.87-.5v-.34A1.89,1.89,0,0,1,265.89,143.18Z"/><path class="cls-13" d="M265.89,147.86l10.47-6c.48-.28.87-.06.87.5v.33a1.92,1.92,0,0,1-.87,1.5l-10.47,6c-.48.27-.87,0-.87-.5v-.35A1.92,1.92,0,0,1,265.89,147.86Z"/><path class="cls-13" d="M265.89,152.55l17.4-10c.48-.28.86-.06.86.5v.33a1.91,1.91,0,0,1-.86,1.5l-17.4,10c-.48.28-.87.05-.87-.5v-.34A1.89,1.89,0,0,1,265.89,152.55Z"/><path class="cls-13" d="M265.89,157.23l17.4-10c.48-.28.86,0,.86.5V148a1.88,1.88,0,0,1-.86,1.5l-17.4,10.05c-.48.27-.87,0-.87-.5v-.35A1.92,1.92,0,0,1,265.89,157.23Z"/><path class="cls-1" d="M300.34,149.13v1.56c0,.77.54,1.08,1.21.7l20.16-11.64a2.67,2.67,0,0,0,1.2-2.08V136.1c0-.76-.54-1.08-1.2-.69l-20.16,11.64A2.64,2.64,0,0,0,300.34,149.13Z"/><path class="cls-12" d="M300.85,114.78l20.91-12.07c.95-.55,1.73-.1,1.73,1v24.14a3.85,3.85,0,0,1-1.73,3l-20.91,12.07c-1,.55-1.73.1-1.73-1V117.78A3.82,3.82,0,0,1,300.85,114.78Z"/><path class="cls-2" d="M324.22,106l-4.66,2.69a3.82,3.82,0,0,0-1.73,3V117c0,1.11.77,1.55,1.73,1l4.66-2.69a3.85,3.85,0,0,0,1.73-3V107C326,105.86,325.17,105.42,324.22,106Z"/><path class="cls-13" d="M302.44,117.39l10.48-6c.48-.27.86,0,.86.5v.34a1.91,1.91,0,0,1-.86,1.5l-10.48,6c-.47.28-.86,0-.86-.5v-.34A1.91,1.91,0,0,1,302.44,117.39Z"/><path class="cls-13" d="M302.44,122.07l10.48-6c.48-.28.86-.06.86.5v.33a1.91,1.91,0,0,1-.86,1.5l-10.48,6c-.47.27-.86,0-.86-.5v-.35A1.94,1.94,0,0,1,302.44,122.07Z"/><path class="cls-13" d="M302.44,126.76l10.48-6c.48-.28.86,0,.86.5v.33a1.88,1.88,0,0,1-.86,1.5l-10.48,6c-.47.28-.86.05-.86-.5v-.34A1.91,1.91,0,0,1,302.44,126.76Z"/><path class="cls-13" d="M302.44,131.44l17.4-10c.48-.28.87,0,.87.5v.33a1.89,1.89,0,0,1-.87,1.5l-17.4,10c-.47.27-.86.05-.86-.5v-.35A1.94,1.94,0,0,1,302.44,131.44Z"/><path class="cls-13" d="M302.44,136.13l17.4-10c.48-.27.87,0,.87.51v.33a1.92,1.92,0,0,1-.87,1.5l-17.4,10c-.47.28-.86.05-.86-.5v-.35A1.91,1.91,0,0,1,302.44,136.13Z"/><path class="cls-1" d="M263.79,220.05v1.57c0,.77.54,1.08,1.2.69l20.16-11.64a2.65,2.65,0,0,0,1.2-2.08V207c0-.77-.54-1.08-1.2-.7L265,218A2.67,2.67,0,0,0,263.79,220.05Z"/><path class="cls-12" d="M264.29,185.7l20.91-12.07c1-.55,1.73-.1,1.73,1v24.14a3.81,3.81,0,0,1-1.73,3l-20.91,12.07c-1,.56-1.73.11-1.73-1V188.7A3.86,3.86,0,0,1,264.29,185.7Z"/><path class="cls-2" d="M287.66,176.89,283,179.58a3.84,3.84,0,0,0-1.73,3V188c0,1.1.77,1.55,1.73,1l4.66-2.7a3.81,3.81,0,0,0,1.73-3v-5.38C289.39,176.79,288.62,176.34,287.66,176.89Z"/><path class="cls-13" d="M265.89,188.31l10.47-6c.48-.28.87-.06.87.5v.33a1.92,1.92,0,0,1-.87,1.5l-10.47,6c-.48.27-.87.05-.87-.5v-.35A1.92,1.92,0,0,1,265.89,188.31Z"/><path class="cls-13" d="M265.89,193l10.47-6c.48-.28.87-.05.87.5v.33a1.89,1.89,0,0,1-.87,1.5l-10.47,6c-.48.28-.87,0-.87-.5v-.34A1.89,1.89,0,0,1,265.89,193Z"/><path class="cls-13" d="M265.89,197.68l10.47-6c.48-.27.87-.05.87.51v.33a1.92,1.92,0,0,1-.87,1.5l-10.47,6c-.48.27-.87.05-.87-.5v-.35A1.92,1.92,0,0,1,265.89,197.68Z"/><path class="cls-13" d="M265.89,202.37l17.4-10c.48-.27.86-.05.86.51v.33a1.91,1.91,0,0,1-.86,1.5l-17.4,10c-.48.28-.87,0-.87-.5v-.35A1.89,1.89,0,0,1,265.89,202.37Z"/><path class="cls-13" d="M265.89,207.05l17.4-10c.48-.28.86-.05.86.5v.33a1.88,1.88,0,0,1-.86,1.5l-17.4,10c-.48.28-.87.06-.87-.5v-.34A1.92,1.92,0,0,1,265.89,207.05Z"/><path class="cls-1" d="M300.34,199v1.56c0,.77.54,1.08,1.21.7l20.16-11.64a2.67,2.67,0,0,0,1.2-2.08v-1.57c0-.77-.54-1.08-1.2-.69l-20.16,11.63A2.67,2.67,0,0,0,300.34,199Z"/><path class="cls-12" d="M300.85,164.6l20.91-12.07c.95-.55,1.73-.11,1.73,1v24.14a3.86,3.86,0,0,1-1.73,3l-20.91,12.07c-1,.55-1.73.1-1.73-1V167.6A3.81,3.81,0,0,1,300.85,164.6Z"/><path class="cls-2" d="M324.22,155.79l-4.66,2.69a3.81,3.81,0,0,0-1.73,3v5.38c0,1.1.77,1.55,1.73,1l4.66-2.69a3.85,3.85,0,0,0,1.73-3v-5.38C326,155.68,325.17,155.24,324.22,155.79Z"/><path class="cls-13" d="M302.44,167.21l10.48-6c.48-.28.86-.05.86.5V162a1.88,1.88,0,0,1-.86,1.5l-10.48,6c-.47.28-.86,0-.86-.5v-.34A1.91,1.91,0,0,1,302.44,167.21Z"/><path class="cls-13" d="M302.44,171.89l10.48-6c.48-.27.86-.05.86.51v.33a1.91,1.91,0,0,1-.86,1.5l-10.48,6c-.47.27-.86,0-.86-.5v-.35A1.94,1.94,0,0,1,302.44,171.89Z"/><path class="cls-13" d="M302.44,176.58l10.48-6c.48-.28.86-.05.86.5v.33a1.88,1.88,0,0,1-.86,1.5l-10.48,6c-.47.28-.86.05-.86-.5v-.35A1.91,1.91,0,0,1,302.44,176.58Z"/><path class="cls-13" d="M302.44,181.26l17.4-10c.48-.28.87,0,.87.5v.33a1.89,1.89,0,0,1-.87,1.5l-17.4,10c-.47.28-.86.06-.86-.5v-.34A1.94,1.94,0,0,1,302.44,181.26Z"/><path class="cls-13" d="M302.44,185.94l17.4-10c.48-.27.87,0,.87.5v.34a1.92,1.92,0,0,1-.87,1.5l-17.4,10c-.47.27-.86.05-.86-.5v-.35A1.94,1.94,0,0,1,302.44,185.94Z"/><path class="cls-1" d="M189.07,263.22v1.57c0,.76.54,1.07,1.2.69l20.16-11.64a2.65,2.65,0,0,0,1.2-2.08v-1.57c0-.76-.54-1.07-1.2-.69l-20.16,11.64A2.65,2.65,0,0,0,189.07,263.22Z"/><path class="cls-12" d="M189.57,228.87l20.91-12.07c1-.55,1.73-.1,1.73,1v24.14a3.82,3.82,0,0,1-1.73,3L189.57,257c-.95.55-1.73.11-1.73-1V231.87A3.85,3.85,0,0,1,189.57,228.87Z"/><path class="cls-2" d="M212.94,220.06l-4.66,2.69a3.82,3.82,0,0,0-1.73,3v5.38c0,1.11.77,1.56,1.73,1l4.66-2.69a3.81,3.81,0,0,0,1.73-3v-5.38C214.67,220,213.9,219.51,212.94,220.06Z"/><path class="cls-13" d="M191.17,231.48l10.47-6c.48-.27.87,0,.87.5v.34a1.92,1.92,0,0,1-.87,1.5l-10.47,6c-.48.28-.87.06-.87-.5V233A1.91,1.91,0,0,1,191.17,231.48Z"/><path class="cls-13" d="M191.17,236.16l10.47-6c.48-.28.87,0,.87.5V231a1.91,1.91,0,0,1-.87,1.5l-10.47,6c-.48.27-.87.05-.87-.5v-.35A1.92,1.92,0,0,1,191.17,236.16Z"/><path class="cls-13" d="M191.17,240.85l10.47-6c.48-.27.87,0,.87.5v.34a1.92,1.92,0,0,1-.87,1.5l-10.47,6c-.48.28-.87.05-.87-.5v-.34A1.89,1.89,0,0,1,191.17,240.85Z"/><path class="cls-13" d="M191.17,245.53l17.4-10c.48-.27.86-.05.86.5v.34a1.91,1.91,0,0,1-.86,1.5l-17.4,10c-.48.27-.87.05-.87-.5V247A1.92,1.92,0,0,1,191.17,245.53Z"/><path class="cls-13" d="M191.17,250.22l17.4-10c.48-.28.86-.05.86.5V241a1.91,1.91,0,0,1-.86,1.5l-17.4,10c-.48.28-.87.05-.87-.5v-.34A1.89,1.89,0,0,1,191.17,250.22Z"/><path class="cls-1" d="M225.63,242.12v1.56c0,.77.53,1.08,1.2.69L247,232.74a2.68,2.68,0,0,0,1.2-2.09v-1.56c0-.77-.54-1.08-1.2-.7L226.83,240A2.66,2.66,0,0,0,225.63,242.12Z"/><path class="cls-12" d="M226.13,207.77,247,195.7c1-.56,1.73-.11,1.73,1v24.13a3.81,3.81,0,0,1-1.73,3l-20.91,12.08c-1,.55-1.73.1-1.73-1V210.77A3.81,3.81,0,0,1,226.13,207.77Z"/><path class="cls-2" d="M249.5,199l-4.66,2.69a3.81,3.81,0,0,0-1.73,3V210c0,1.1.77,1.55,1.73,1l4.66-2.69a3.86,3.86,0,0,0,1.73-3V200C251.23,198.85,250.45,198.4,249.5,199Z"/><path class="cls-13" d="M227.72,210.37l10.48-6c.48-.28.86,0,.86.5v.33a1.9,1.9,0,0,1-.86,1.5l-10.48,6c-.47.27-.86.05-.86-.5v-.35A1.94,1.94,0,0,1,227.72,210.37Z"/><path class="cls-13" d="M227.72,215.06l10.48-6c.48-.27.86-.05.86.5v.34a1.91,1.91,0,0,1-.86,1.5l-10.48,6c-.47.28-.86,0-.86-.5v-.34A1.91,1.91,0,0,1,227.72,215.06Z"/><path class="cls-13" d="M227.72,219.74l10.48-6c.48-.28.86-.05.86.5v.33a1.91,1.91,0,0,1-.86,1.5l-10.48,6c-.47.27-.86,0-.86-.5v-.35A1.94,1.94,0,0,1,227.72,219.74Z"/><path class="cls-13" d="M227.72,224.43l17.41-10c.47-.28.86-.06.86.5v.33a1.94,1.94,0,0,1-.86,1.5l-17.41,10c-.47.28-.86,0-.86-.5v-.34A1.91,1.91,0,0,1,227.72,224.43Z"/><path class="cls-13" d="M227.72,229.11l17.41-10c.47-.28.86-.05.86.5v.34a1.91,1.91,0,0,1-.86,1.49l-17.41,10.05c-.47.27-.86,0-.86-.5v-.35A1.94,1.94,0,0,1,227.72,229.11Z"/><polygon class="cls-2" points="130.97 134.13 126.91 131.77 126.91 150.53 130.97 152.88 130.97 134.13"/><polygon class="cls-14" points="130.97 134.13 126.91 131.77 126.91 150.53 130.97 152.88 130.97 134.13"/></g></g><g id="Magnifying_glass" data-name="Magnifying glass"><g id="Magnifying_glass-2" data-name="Magnifying glass"><path class="cls-2" d="M370.89,211.7h0A2.83,2.83,0,0,0,368,212a9,9,0,0,0-4.09,7,2.86,2.86,0,0,0,1.19,2.64h0l50.62,32h0c1,.69,2.52.66,4.16-.29a12.54,12.54,0,0,0,5.71-9.84c0-1.9-.69-3.2-1.81-3.76h0Z"/><path class="cls-15" d="M363.93,219c0,2.6,1.82,3.65,4.06,2.36a9,9,0,0,0,4.09-7c0-2.59-1.81-3.65-4.06-2.35A9,9,0,0,0,363.93,219Z"/><path class="cls-5" d="M352.73,205a5.48,5.48,0,0,0-2.47,4.26,1.71,1.71,0,0,0,.72,1.59h0l15.28,8.87h0a1.73,1.73,0,0,0,1.74-.17,5.44,5.44,0,0,0,2.47-4.25,1.73,1.73,0,0,0-.72-1.6l-15.28-8.86h0A1.72,1.72,0,0,0,352.73,205Z"/><path class="cls-14" d="M369.91,219.72l52.07,32a9.49,9.49,0,0,1-2.08,1.66c-1.64.94-3.12,1-4.16.28h0l-50.61-32a2.87,2.87,0,0,0,2.88-.28A7.56,7.56,0,0,0,369.91,219.72Z"/><path class="cls-2" d="M378.65,174.16c0-.43,0-.85-.07-1.27s-.05-.83-.09-1.24-.05-.54-.09-.81c-.07-.71-.17-1.41-.29-2.08-.05-.31-.1-.62-.17-.93s-.11-.57-.17-.85c-.18-.78-.37-1.53-.59-2.26-.12-.34-.22-.69-.34-1a1,1,0,0,1,0-.16c-.12-.33-.24-.66-.36-1s-.3-.73-.46-1.08-.24-.51-.37-.76a4,4,0,0,0-.27-.55c-.11-.22-.22-.44-.35-.65,0-.05-.05-.1-.08-.14s-.22-.38-.34-.57-.15-.24-.23-.36a18.9,18.9,0,0,0-1.8-2.39c-.11-.13-.23-.25-.33-.38l-.29-.29c-.11-.13-.24-.24-.36-.37a12.22,12.22,0,0,0-1.09-1,5.68,5.68,0,0,0-.56-.44c-.18-.15-.37-.28-.57-.42s-.62-.43-.93-.61l-.25-.15-.06-.05h0l-11-6.39h0L357,146a18.59,18.59,0,0,0-9.32-2.35c-4.85,0-10.34,1.59-16.15,4.94-20,11.52-36.14,39.55-36.14,62.6,0,11.49,4,19.57,10.52,23.36l.07,0h0l11,6.37s0,0,0,0l.06,0h0l.18.09a8.77,8.77,0,0,0,.86.45c.35.18.72.33,1.08.48s.66.26,1,.37a5.26,5.26,0,0,0,.53.15,3,3,0,0,0,.58.17,4.51,4.51,0,0,0,.58.15l.43.09a6.86,6.86,0,0,0,.79.14.52.52,0,0,0,.18,0l.94.13c5.38.56,11.64-1,18.34-4.82,20-11.52,36.15-39.56,36.15-62.6C378.68,175.25,378.67,174.7,378.65,174.16Zm-24.22-16.3a32.24,32.24,0,0,1,1.14,8.79c0,20.33-14.87,46.09-32.48,56.26a31.56,31.56,0,0,1-8.24,3.42,32.66,32.66,0,0,1-1.14-8.8c0-20.33,14.88-46.09,32.48-56.26A31.65,31.65,0,0,1,354.43,157.86Z"/><path class="cls-14" d="M316.46,240.64l-10.6-6.14c-6.5-3.8-10.52-11.88-10.52-23.36,0-10.28,3.23-21.54,8.55-31.88l11,6.38c-5.34,10.34-8.55,21.61-8.55,31.89C306.38,228.77,310.2,236.74,316.46,240.64Z"/><path class="cls-16" d="M378.65,174.16c0-.43,0-.85-.07-1.27s-.05-.83-.09-1.24-.05-.54-.09-.81c-.07-.71-.17-1.41-.29-2.08-.05-.31-.1-.62-.17-.93s-.11-.57-.17-.85c-.18-.78-.37-1.53-.59-2.26-.12-.34-.22-.69-.34-1a1,1,0,0,1,0-.16c-.12-.33-.24-.66-.36-1s-.3-.73-.46-1.08-.24-.51-.37-.76a4,4,0,0,0-.27-.55c-.11-.22-.22-.44-.35-.65,0-.05-.05-.1-.08-.14s-.22-.38-.34-.57-.15-.24-.23-.36a18.9,18.9,0,0,0-1.8-2.39c-.11-.13-.23-.25-.33-.38l-.29-.29c-.11-.13-.24-.24-.36-.37a12.22,12.22,0,0,0-1.09-1,5.68,5.68,0,0,0-.56-.44c-.18-.15-.37-.28-.57-.42s-.62-.43-.93-.61c-6.57-4-16-3.9-25.87,2.34-19.81,12.48-36,40.14-36.15,62.6-.05,11.67,4.15,19.82,10.84,23.53a8.77,8.77,0,0,0,.86.45c.35.18.72.33,1.08.48s.66.26,1,.37a5.26,5.26,0,0,0,.53.15,3,3,0,0,0,.58.17,4.51,4.51,0,0,0,.58.15l.43.09a6.86,6.86,0,0,0,.79.14.52.52,0,0,0,.18,0l.94.13c5.38.56,11.64-1,18.34-4.82,20-11.52,36.15-39.56,36.15-62.6C378.68,175.25,378.67,174.7,378.65,174.16Zm-39.78,57.9c-4.48,2.58-8.8,3.94-12.48,3.94-6.92,0-10.1-4.72-11.54-9.67a32.66,32.66,0,0,1-1.14-8.8c0-20.33,14.88-46.09,32.48-56.26a31.65,31.65,0,0,1,8.24-3.41,18.05,18.05,0,0,1,4.24-.54c11.44,0,12.67,12.92,12.67,18.48C371.34,196.13,356.47,221.89,338.87,232.06Z"/><path class="cls-14" d="M371.34,175.8c0,20.33-14.87,46.09-32.48,56.25-4.48,2.59-8.79,3.95-12.47,3.95a10.62,10.62,0,0,1-8.5-3.72h0c-.18-.22-.36-.43-.53-.66s-.32-.45-.47-.69-.21-.33-.31-.5-.13-.23-.19-.34l-.23-.42-.18-.38c-.07-.13-.13-.27-.19-.41s-.21-.47-.3-.72-.23-.6-.34-.9-.2-.62-.29-.93a31.28,31.28,0,0,0,8.24-3.43c17.61-10.15,32.48-35.92,32.48-56.25a32.18,32.18,0,0,0-1.13-8.79,17.92,17.92,0,0,1,4.24-.54,12.89,12.89,0,0,1,1.67.11c.18,0,.35,0,.52.07h0C370.26,159.07,371.34,170.62,371.34,175.8Z"/><path class="cls-17" d="M365,172.25c0,20.33-14.86,46.1-32.47,56.26-4.48,2.58-8.79,4-12.48,4a12.57,12.57,0,0,1-2.18-.18c-.18-.22-.36-.43-.53-.66s-.32-.45-.47-.69-.21-.33-.31-.5-.13-.23-.19-.34l-.23-.42-.18-.38c-.07-.13-.13-.27-.19-.41s-.21-.47-.3-.72-.23-.6-.34-.9-.2-.62-.29-.93a31.28,31.28,0,0,0,8.24-3.43c17.61-10.15,32.48-35.92,32.48-56.25a32.18,32.18,0,0,0-1.13-8.79,17.92,17.92,0,0,1,4.24-.54,12.89,12.89,0,0,1,1.67.11c.18,0,.35,0,.52.07C364.48,161.76,365,168.6,365,172.25Z"/></g></g></g></svg>